<svg xmlns="http://www.w3.org/2000/svg" width="70" height="70" viewBox="0 0 70 70">
  <g id="Group_734" data-name="Group 734" transform="translate(-50 -110)">
    <path id="Path_778" data-name="Path 778" d="M83.081,47.026a1.283,1.283,0,1,1,0,2.566,1.287,1.287,0,1,1,0-2.566m42.725-27.986a3.952,3.952,0,0,0-3.953,3.953,3.864,3.864,0,0,0,3.953,3.849,3.777,3.777,0,0,0,3.849-3.849,3.843,3.843,0,0,0-3.849-3.953m-8.566,0a3.952,3.952,0,0,0-3.953,3.953,3.864,3.864,0,0,0,3.953,3.849,3.9,3.9,0,0,0,0-7.8m-8.566,0a3.952,3.952,0,0,0-3.953,3.953,3.864,3.864,0,0,0,3.953,3.849,3.777,3.777,0,0,0,3.849-3.849,3.843,3.843,0,0,0-3.849-3.953m-8.566,0a3.952,3.952,0,0,0-3.953,3.953,3.864,3.864,0,0,0,3.953,3.849,3.777,3.777,0,0,0,3.849-3.849,3.843,3.843,0,0,0-3.849-3.953m17.444-7.907a3.4,3.4,0,0,0-3.433,3.364,3.494,3.494,0,0,0,3.433,3.468,3.435,3.435,0,0,0,3.364-3.468,3.345,3.345,0,0,0-3.364-3.364m-7.63,0A3.4,3.4,0,0,0,106.49,14.5a3.494,3.494,0,0,0,3.433,3.468,3.435,3.435,0,0,0,3.364-3.468,3.39,3.39,0,0,0-3.364-3.364m-7.664,0A3.4,3.4,0,0,0,98.826,14.5a3.494,3.494,0,0,0,3.433,3.468,3.435,3.435,0,0,0,3.364-3.468,3.345,3.345,0,0,0-3.364-3.364m15.294,16.924a3.4,3.4,0,0,0-3.433,3.364,3.494,3.494,0,0,0,3.433,3.468,3.435,3.435,0,0,0,3.364-3.468,3.345,3.345,0,0,0-3.364-3.364m-7.63,0a3.4,3.4,0,0,0-3.433,3.364,3.494,3.494,0,0,0,3.433,3.468,3.435,3.435,0,0,0,3.364-3.468,3.389,3.389,0,0,0-3.364-3.364m-7.664,0a3.4,3.4,0,0,0-3.433,3.364,3.494,3.494,0,0,0,3.433,3.468,3.435,3.435,0,0,0,3.364-3.468,3.345,3.345,0,0,0-3.364-3.364m-7.63,0A3.4,3.4,0,0,0,91.2,31.42a3.494,3.494,0,0,0,3.433,3.468,3.435,3.435,0,0,0,3.364-3.468,3.367,3.367,0,0,0-3.364-3.364m12-23.339a2.619,2.619,0,1,0,0,5.237,2.619,2.619,0,0,0,0-5.237m-5.791,0a2.619,2.619,0,1,0,0,5.237,2.619,2.619,0,0,0,0-5.237m-5.826,0a2.619,2.619,0,1,0,0,5.237,2.619,2.619,0,0,0,0-5.237m11.618,31.212a2.619,2.619,0,1,0,0,5.237,2.619,2.619,0,0,0,0-5.237m-5.791,0a2.619,2.619,0,1,0,0,5.237,2.619,2.619,0,0,0,0-5.237m-5.826,0a2.619,2.619,0,1,0,0,5.237,2.619,2.619,0,0,0,0-5.237m-5.791,0a2.619,2.619,0,1,0,0,5.237,2.619,2.619,0,0,0,0-5.237M93.242,0a1.868,1.868,0,0,0-1.873,1.769,1.96,1.96,0,0,0,1.873,1.873,1.868,1.868,0,0,0,1.769-1.873A1.776,1.776,0,0,0,93.242,0M89.254,0a1.868,1.868,0,0,0-1.873,1.769,1.96,1.96,0,0,0,1.873,1.873,1.868,1.868,0,0,0,1.769-1.873A1.776,1.776,0,0,0,89.254,0m4.682,42.413a1.868,1.868,0,0,0-1.873,1.769,1.935,1.935,0,0,0,1.873,1.873A1.868,1.868,0,0,0,95.7,44.182a1.776,1.776,0,0,0-1.769-1.769m-3.953,0a1.868,1.868,0,0,0-1.873,1.769,1.935,1.935,0,0,0,1.873,1.873,1.868,1.868,0,0,0,1.769-1.873,1.776,1.776,0,0,0-1.769-1.769m-3.988,0a1.868,1.868,0,0,0-1.873,1.769,1.935,1.935,0,0,0,1.873,1.873,1.868,1.868,0,0,0,1.769-1.873,1.776,1.776,0,0,0-1.769-1.769m.139,4.612a1.287,1.287,0,1,0,0,2.566,1.283,1.283,0,0,0,0-2.566" transform="translate(-19.656 120.408)" fill="#fff"/>
    <rect id="Rectangle_3311" data-name="Rectangle 3311" width="70" height="70" transform="translate(50 110)" fill="none"/>
  </g>
</svg>
