<svg xmlns="http://www.w3.org/2000/svg" width="70" height="70" viewBox="0 0 70 70">
  <g id="Group_736" data-name="Group 736" transform="translate(-200 -250)">
    <path id="Path_777" data-name="Path 777" d="M18,29V27H4.02L4,35a3.986,3.986,0,0,0,4,4H36a3.986,3.986,0,0,0,4-4V27H26v2ZM38,11H29.98V7l-4-4h-8l-4,4v4H6a4.012,4.012,0,0,0-4,4v6a3.986,3.986,0,0,0,4,4H18V21h8v4H38a4.012,4.012,0,0,0,4-4V15A4.012,4.012,0,0,0,38,11ZM26,11H18V7h8Z" transform="translate(213 264)" fill="#fff"/>
    <rect id="Rectangle_3311" data-name="Rectangle 3311" width="70" height="70" transform="translate(200 250)" fill="none"/>
  </g>
</svg>
