<svg xmlns="http://www.w3.org/2000/svg" width="70" height="70" viewBox="0 0 70 70">
  <g id="Group_735" data-name="Group 735" transform="translate(-200 -110)">
    <g id="Group_391" data-name="Group 391" transform="translate(-202.295 40.221)">
      <path id="Path_531" data-name="Path 531" d="M86.687,9.146l-1.661,1.343-2.014,7.843.318,3.286,1.519,7.1,1.625,9.08h5.653V31.794l.53-18.3-.883-4.31ZM89.336,0a3.447,3.447,0,0,0-3.568,3.356A3.423,3.423,0,0,0,89.23,6.815,3.411,3.411,0,0,0,89.336,0ZM61.5.6a3.5,3.5,0,0,0-3.568,3.392,3.463,3.463,0,0,0,6.925.035A3.463,3.463,0,0,0,61.5.6Zm2.685,17.418c0-1.272-.671-7.773-.671-8.833H56.8l-2.3,8.833.671,6.395.6,2.791.459,6.5v3.957h7.985V18.015Z" transform="translate(367.28 85.937)" fill="#fff" opacity="0.502"/>
      <path id="Path_530" data-name="Path 530" d="M43.1,9.892s1.449.848,1.413,1.767c-.495,10.988,6.819,32.5,6.819,32.5H46.39L40.631,33.069,39.889,44.2h-5.37l-.141-11.553,4.84-5.441.495-10.14L37.557,15.9s-2.968,4.628-1.519,7.561c.283.565,1.8,4.416-1.519,4.84-1.06-2.438-3.25-7.42-3.25-7.42l.106-1.449,3.18-7.632,1.307-1.1ZM35.3,4.2A4.227,4.227,0,0,0,39.535,8.2a4.133,4.133,0,0,0,3.886-4.1,4.147,4.147,0,0,0-4.1-4.1A4.251,4.251,0,0,0,35.3,4.2ZM0,44.163H28.971v-3.18H5.335ZM6.324,37.8H28.971v-3.18H10.493Zm5.653-6.36H28.971v-3.18H15.122ZM67.27,44.128v-10.6a2.164,2.164,0,0,1,2.473,2.12c.035,2.12.035,4.2,0,6.324A2.153,2.153,0,0,1,67.27,44.128Zm-12.3.035a2.164,2.164,0,0,1-2.3-2.191c-.071-2.085-.071-4.169,0-6.218a2.184,2.184,0,0,1,2.3-2.191ZM65.009,33.387c-.247-2.4-1.2-3.286-3.427-3.356-3-.071-3.957.636-4.381,3.356-.565.035-1.378.106-1.378.106V44.128h10.6V33.493S65.61,33.422,65.009,33.387Zm-1.908,0H59.215c-.283-.883.035-1.413.919-1.484a9.258,9.258,0,0,1,1.979,0C63,31.974,63.384,32.468,63.1,33.387Z" transform="translate(402.525 85.58)" fill="#fff"/>
    </g>
    <rect id="Rectangle_3312" data-name="Rectangle 3312" width="70" height="70" transform="translate(200 110)" fill="none"/>
  </g>
</svg>
